<?xml version="1.0" encoding="utf-8" standalone="no"?>
<!DOCTYPE svg PUBLIC "-//W3C//DTD SVG 1.1//EN"
  "http://www.w3.org/Graphics/SVG/1.1/DTD/svg11.dtd">
<svg xmlns:xlink="http://www.w3.org/1999/xlink" width="465.99264pt" height="288pt" viewBox="0 0 465.99264 288" xmlns="http://www.w3.org/2000/svg" version="1.1">
 <metadata>
  <rdf:RDF xmlns:dc="http://purl.org/dc/elements/1.1/" xmlns:cc="http://creativecommons.org/ns#" xmlns:rdf="http://www.w3.org/1999/02/22-rdf-syntax-ns#">
   <cc:Work>
    <dc:type rdf:resource="http://purl.org/dc/dcmitype/StillImage"/>
    <dc:date>2026-06-25T10:45:40.497833</dc:date>
    <dc:format>image/svg+xml</dc:format>
    <dc:creator>
     <cc:Agent>
      <dc:title>Matplotlib v3.10.9, https://matplotlib.org/</dc:title>
     </cc:Agent>
    </dc:creator>
   </cc:Work>
  </rdf:RDF>
 </metadata>
 <defs>
  <style type="text/css">*{stroke-linejoin: round; stroke-linecap: butt}</style>
 </defs>
 <g id="figure_1">
  <g id="patch_1">
   <path d="M 0 288 
L 465.99264 288 
L 465.99264 0 
L 0 0 
z
" style="fill: #ffffff"/>
  </g>
  <g id="axes_1">
   <g id="patch_2">
    <path d="M 69.898896 244.8 
L 419.393376 244.8 
L 419.393376 28.8 
L 69.898896 28.8 
z
" style="fill: #ffffff"/>
   </g>
   <g id="matplotlib.axis_1">
    <g id="xtick_1">
     <g id="line2d_1">
      <defs>
       <path id="m410eba407a" d="M 0 0 
L 0 3.5 
" style="stroke: #000000; stroke-width: 0.8"/>
      </defs>
      <g>
       <use xlink:href="#m410eba407a" x="85.785009" y="244.8" style="stroke: #000000; stroke-width: 0.8"/>
      </g>
     </g>
     <g id="text_1">
      <text style="font-size: 10px; font-family: 'DejaVu Sans', 'Bitstream Vera Sans', 'Computer Modern Sans Serif', 'Lucida Grande', 'Verdana', 'Geneva', 'Lucid', 'Arial', 'Helvetica', 'Avant Garde', sans-serif; text-anchor: middle" x="85.785009" y="259.398438" transform="rotate(-0 85.785009 259.398438)">709.5</text>
     </g>
    </g>
    <g id="xtick_2">
     <g id="line2d_2">
      <g>
       <use xlink:href="#m410eba407a" x="138.738718" y="244.8" style="stroke: #000000; stroke-width: 0.8"/>
      </g>
     </g>
     <g id="text_2">
      <text style="font-size: 10px; font-family: 'DejaVu Sans', 'Bitstream Vera Sans', 'Computer Modern Sans Serif', 'Lucida Grande', 'Verdana', 'Geneva', 'Lucid', 'Arial', 'Helvetica', 'Avant Garde', sans-serif; text-anchor: middle" x="138.738718" y="259.398438" transform="rotate(-0 138.738718 259.398438)">710.0</text>
     </g>
    </g>
    <g id="xtick_3">
     <g id="line2d_3">
      <g>
       <use xlink:href="#m410eba407a" x="191.692427" y="244.8" style="stroke: #000000; stroke-width: 0.8"/>
      </g>
     </g>
     <g id="text_3">
      <text style="font-size: 10px; font-family: 'DejaVu Sans', 'Bitstream Vera Sans', 'Computer Modern Sans Serif', 'Lucida Grande', 'Verdana', 'Geneva', 'Lucid', 'Arial', 'Helvetica', 'Avant Garde', sans-serif; text-anchor: middle" x="191.692427" y="259.398438" transform="rotate(-0 191.692427 259.398438)">710.5</text>
     </g>
    </g>
    <g id="xtick_4">
     <g id="line2d_4">
      <g>
       <use xlink:href="#m410eba407a" x="244.646136" y="244.8" style="stroke: #000000; stroke-width: 0.8"/>
      </g>
     </g>
     <g id="text_4">
      <text style="font-size: 10px; font-family: 'DejaVu Sans', 'Bitstream Vera Sans', 'Computer Modern Sans Serif', 'Lucida Grande', 'Verdana', 'Geneva', 'Lucid', 'Arial', 'Helvetica', 'Avant Garde', sans-serif; text-anchor: middle" x="244.646136" y="259.398438" transform="rotate(-0 244.646136 259.398438)">711.0</text>
     </g>
    </g>
    <g id="xtick_5">
     <g id="line2d_5">
      <g>
       <use xlink:href="#m410eba407a" x="297.599845" y="244.8" style="stroke: #000000; stroke-width: 0.8"/>
      </g>
     </g>
     <g id="text_5">
      <text style="font-size: 10px; font-family: 'DejaVu Sans', 'Bitstream Vera Sans', 'Computer Modern Sans Serif', 'Lucida Grande', 'Verdana', 'Geneva', 'Lucid', 'Arial', 'Helvetica', 'Avant Garde', sans-serif; text-anchor: middle" x="297.599845" y="259.398438" transform="rotate(-0 297.599845 259.398438)">711.5</text>
     </g>
    </g>
    <g id="xtick_6">
     <g id="line2d_6">
      <g>
       <use xlink:href="#m410eba407a" x="350.553554" y="244.8" style="stroke: #000000; stroke-width: 0.8"/>
      </g>
     </g>
     <g id="text_6">
      <text style="font-size: 10px; font-family: 'DejaVu Sans', 'Bitstream Vera Sans', 'Computer Modern Sans Serif', 'Lucida Grande', 'Verdana', 'Geneva', 'Lucid', 'Arial', 'Helvetica', 'Avant Garde', sans-serif; text-anchor: middle" x="350.553554" y="259.398438" transform="rotate(-0 350.553554 259.398438)">712.0</text>
     </g>
    </g>
    <g id="xtick_7">
     <g id="line2d_7">
      <g>
       <use xlink:href="#m410eba407a" x="403.507263" y="244.8" style="stroke: #000000; stroke-width: 0.8"/>
      </g>
     </g>
     <g id="text_7">
      <text style="font-size: 10px; font-family: 'DejaVu Sans', 'Bitstream Vera Sans', 'Computer Modern Sans Serif', 'Lucida Grande', 'Verdana', 'Geneva', 'Lucid', 'Arial', 'Helvetica', 'Avant Garde', sans-serif; text-anchor: middle" x="403.507263" y="259.398438" transform="rotate(-0 403.507263 259.398438)">712.5</text>
     </g>
    </g>
    <g id="text_8">
     <text style="font-size: 10px; font-family: 'DejaVu Sans', 'Bitstream Vera Sans', 'Computer Modern Sans Serif', 'Lucida Grande', 'Verdana', 'Geneva', 'Lucid', 'Arial', 'Helvetica', 'Avant Garde', sans-serif; text-anchor: middle" x="244.646136" y="273.076563" transform="rotate(-0 244.646136 273.076563)">Photon Energy [eV]</text>
    </g>
   </g>
   <g id="matplotlib.axis_2">
    <g id="ytick_1">
     <g id="line2d_8">
      <defs>
       <path id="m21114c903b" d="M 0 0 
L -3.5 0 
" style="stroke: #000000; stroke-width: 0.8"/>
      </defs>
      <g>
       <use xlink:href="#m21114c903b" x="69.898896" y="228.209584" style="stroke: #000000; stroke-width: 0.8"/>
      </g>
     </g>
     <g id="text_9">
      <text style="font-size: 10px; font-family: 'DejaVu Sans', 'Bitstream Vera Sans', 'Computer Modern Sans Serif', 'Lucida Grande', 'Verdana', 'Geneva', 'Lucid', 'Arial', 'Helvetica', 'Avant Garde', sans-serif; text-anchor: end" x="62.898896" y="232.008802" transform="rotate(-0 62.898896 232.008802)">−0.4</text>
     </g>
    </g>
    <g id="ytick_2">
     <g id="line2d_9">
      <g>
       <use xlink:href="#m21114c903b" x="69.898896" y="188.846582" style="stroke: #000000; stroke-width: 0.8"/>
      </g>
     </g>
     <g id="text_10">
      <text style="font-size: 10px; font-family: 'DejaVu Sans', 'Bitstream Vera Sans', 'Computer Modern Sans Serif', 'Lucida Grande', 'Verdana', 'Geneva', 'Lucid', 'Arial', 'Helvetica', 'Avant Garde', sans-serif; text-anchor: end" x="62.898896" y="192.645801" transform="rotate(-0 62.898896 192.645801)">−0.3</text>
     </g>
    </g>
    <g id="ytick_3">
     <g id="line2d_10">
      <g>
       <use xlink:href="#m21114c903b" x="69.898896" y="149.48358" style="stroke: #000000; stroke-width: 0.8"/>
      </g>
     </g>
     <g id="text_11">
      <text style="font-size: 10px; font-family: 'DejaVu Sans', 'Bitstream Vera Sans', 'Computer Modern Sans Serif', 'Lucida Grande', 'Verdana', 'Geneva', 'Lucid', 'Arial', 'Helvetica', 'Avant Garde', sans-serif; text-anchor: end" x="62.898896" y="153.282799" transform="rotate(-0 62.898896 153.282799)">−0.2</text>
     </g>
    </g>
    <g id="ytick_4">
     <g id="line2d_11">
      <g>
       <use xlink:href="#m21114c903b" x="69.898896" y="110.120578" style="stroke: #000000; stroke-width: 0.8"/>
      </g>
     </g>
     <g id="text_12">
      <text style="font-size: 10px; font-family: 'DejaVu Sans', 'Bitstream Vera Sans', 'Computer Modern Sans Serif', 'Lucida Grande', 'Verdana', 'Geneva', 'Lucid', 'Arial', 'Helvetica', 'Avant Garde', sans-serif; text-anchor: end" x="62.898896" y="113.919797" transform="rotate(-0 62.898896 113.919797)">−0.1</text>
     </g>
    </g>
    <g id="ytick_5">
     <g id="line2d_12">
      <g>
       <use xlink:href="#m21114c903b" x="69.898896" y="70.757577" style="stroke: #000000; stroke-width: 0.8"/>
      </g>
     </g>
     <g id="text_13">
      <text style="font-size: 10px; font-family: 'DejaVu Sans', 'Bitstream Vera Sans', 'Computer Modern Sans Serif', 'Lucida Grande', 'Verdana', 'Geneva', 'Lucid', 'Arial', 'Helvetica', 'Avant Garde', sans-serif; text-anchor: end" x="62.898896" y="74.556795" transform="rotate(-0 62.898896 74.556795)">0.0</text>
     </g>
    </g>
    <g id="ytick_6">
     <g id="line2d_13">
      <g>
       <use xlink:href="#m21114c903b" x="69.898896" y="31.394575" style="stroke: #000000; stroke-width: 0.8"/>
      </g>
     </g>
     <g id="text_14">
      <text style="font-size: 10px; font-family: 'DejaVu Sans', 'Bitstream Vera Sans', 'Computer Modern Sans Serif', 'Lucida Grande', 'Verdana', 'Geneva', 'Lucid', 'Arial', 'Helvetica', 'Avant Garde', sans-serif; text-anchor: end" x="62.898896" y="35.193794" transform="rotate(-0 62.898896 35.193794)">0.1</text>
     </g>
    </g>
    <g id="text_15">
     <text style="font-size: 10px; font-family: 'DejaVu Sans', 'Bitstream Vera Sans', 'Computer Modern Sans Serif', 'Lucida Grande', 'Verdana', 'Geneva', 'Lucid', 'Arial', 'Helvetica', 'Avant Garde', sans-serif; text-anchor: middle" x="32.536396" y="136.8" transform="rotate(-90 32.536396 136.8)">Optical Density</text>
    </g>
   </g>
   <g id="line2d_14">
    <path d="M 85.785009 61.84085 
L 112.261863 62.786125 
L 138.738718 61.654524 
L 165.215572 62.570524 
L 191.692427 55.540161 
L 218.169281 39.449979 
L 244.646136 38.618182 
L 271.122991 46.145522 
L 297.599845 60.282998 
L 324.0767 64.145262 
L 350.553554 66.038303 
L 377.030409 66.129587 
L 403.507263 66.603468 
" clip-path="url(#p9579aa0e4c)" style="fill: none; stroke: #000000; stroke-width: 1.5; stroke-linecap: square"/>
   </g>
   <g id="line2d_15">
    <path d="M 85.785009 66.111253 
L 112.261863 67.059208 
L 138.738718 66.164356 
L 165.215572 62.719512 
L 191.692427 55.082941 
L 218.169281 44.85333 
L 244.646136 40.446118 
L 271.122991 45.589357 
L 297.599845 54.279703 
L 324.0767 59.900281 
L 350.553554 62.174719 
L 377.030409 62.667239 
L 403.507263 63.212293 
" clip-path="url(#p9579aa0e4c)" style="fill: none; stroke: #008000; stroke-width: 1.5; stroke-linecap: square"/>
   </g>
   <g id="line2d_16">
    <path d="M 85.785009 66.487174 
L 112.261863 66.484493 
L 138.738718 66.247745 
L 165.215572 70.608589 
L 191.692427 70.300356 
L 218.169281 65.354225 
L 244.646136 68.92964 
L 271.122991 70.201412 
L 297.599845 64.754282 
L 324.0767 66.512595 
L 350.553554 66.893993 
L 377.030409 67.295229 
L 403.507263 67.366401 
" clip-path="url(#p9579aa0e4c)" style="fill: none; stroke: #808080; stroke-width: 1.5; stroke-linecap: square"/>
   </g>
   <g id="line2d_17">
    <path d="M 85.785009 157.119067 
L 112.261863 159.95561 
L 138.738718 156.208104 
L 165.215572 154.544502 
L 191.692427 140.37348 
L 218.169281 108.863869 
L 244.646136 93.60873 
L 271.122991 107.811785 
L 297.599845 132.250959 
L 324.0767 142.063849 
L 350.553554 145.897602 
L 377.030409 146.227359 
L 403.507263 146.397089 
" clip-path="url(#p9579aa0e4c)" style="fill: none; stroke: #000000; stroke-width: 1.5; stroke-linecap: square"/>
   </g>
   <g id="line2d_18">
    <path d="M 85.785009 161.140275 
L 112.261863 163.231467 
L 138.738718 159.603799 
L 165.215572 154.08364 
L 191.692427 137.761712 
L 218.169281 113.072245 
L 244.646136 94.977214 
L 271.122991 108.17768 
L 297.599845 127.95864 
L 324.0767 139.192323 
L 350.553554 143.423214 
L 377.030409 143.678392 
L 403.507263 144.052146 
" clip-path="url(#p9579aa0e4c)" style="fill: none; stroke: #008000; stroke-width: 1.5; stroke-linecap: square"/>
   </g>
   <g id="line2d_19">
    <path d="M 85.785009 66.736368 
L 112.261863 67.481719 
L 138.738718 67.361881 
L 165.215572 70.296715 
L 191.692427 68.145809 
L 218.169281 66.5492 
L 244.646136 69.389093 
L 271.122991 70.391682 
L 297.599845 66.465258 
L 324.0767 67.886051 
L 350.553554 68.283189 
L 377.030409 68.20861 
L 403.507263 68.412633 
" clip-path="url(#p9579aa0e4c)" style="fill: none; stroke: #808080; stroke-width: 1.5; stroke-linecap: square"/>
   </g>
   <g id="line2d_20">
    <path d="M 85.785009 81.709232 
L 112.261863 76.024811 
L 138.738718 81.614101 
L 165.215572 110.989043 
L 191.692427 164.728597 
L 218.169281 222.115319 
L 244.646136 231.555802 
L 271.122991 219.988437 
L 297.599845 174.906451 
L 324.0767 136.350605 
L 350.553554 120.456719 
L 377.030409 117.364605 
L 403.507263 114.201334 
" clip-path="url(#p9579aa0e4c)" style="fill: none; stroke: #000000; stroke-width: 1.5; stroke-linecap: square"/>
   </g>
   <g id="line2d_21">
    <path d="M 85.785009 89.131199 
L 112.261863 82.819356 
L 138.738718 88.979138 
L 165.215572 110.925058 
L 191.692427 159.380387 
L 218.169281 231.965268 
L 244.646136 234.981818 
L 271.122991 219.215815 
L 297.599845 165.057577 
L 324.0767 130.040835 
L 350.553554 115.637487 
L 377.030409 112.463748 
L 403.507263 109.317897 
" clip-path="url(#p9579aa0e4c)" style="fill: none; stroke: #008000; stroke-width: 1.5; stroke-linecap: square"/>
   </g>
   <g id="line2d_22">
    <path d="M 85.785009 63.335609 
L 112.261863 63.963032 
L 138.738718 63.39254 
L 165.215572 70.693591 
L 191.692427 65.409367 
L 218.169281 60.907628 
L 244.646136 67.331561 
L 271.122991 69.984955 
L 297.599845 60.908703 
L 324.0767 64.447807 
L 350.553554 65.938345 
L 377.030409 65.85672 
L 403.507263 65.874139 
" clip-path="url(#p9579aa0e4c)" style="fill: none; stroke: #808080; stroke-width: 1.5; stroke-linecap: square"/>
   </g>
   <g id="patch_3">
    <path d="M 69.898896 244.8 
L 69.898896 28.8 
" style="fill: none; stroke: #000000; stroke-width: 0.8; stroke-linejoin: miter; stroke-linecap: square"/>
   </g>
   <g id="patch_4">
    <path d="M 419.393376 244.8 
L 419.393376 28.8 
" style="fill: none; stroke: #000000; stroke-width: 0.8; stroke-linejoin: miter; stroke-linecap: square"/>
   </g>
   <g id="patch_5">
    <path d="M 69.898896 244.8 
L 419.393376 244.8 
" style="fill: none; stroke: #000000; stroke-width: 0.8; stroke-linejoin: miter; stroke-linecap: square"/>
   </g>
   <g id="patch_6">
    <path d="M 69.898896 28.8 
L 419.393376 28.8 
" style="fill: none; stroke: #000000; stroke-width: 0.8; stroke-linejoin: miter; stroke-linecap: square"/>
   </g>
   <g id="legend_1">
    <g id="patch_7">
     <path d="M 334.790512 240.635 
L 413.562376 240.635 
Q 415.228376 240.635 415.228376 238.969 
L 415.228376 129.760097 
Q 415.228376 128.094097 413.562376 128.094097 
L 334.790512 128.094097 
Q 333.124512 128.094097 333.124512 129.760097 
L 333.124512 238.969 
Q 333.124512 240.635 334.790512 240.635 
z
" style="fill: #ffffff; opacity: 0.8; stroke: #cccccc; stroke-linejoin: miter"/>
    </g>
    <g id="line2d_23">
     <path d="M 336.456512 134.840095 
L 344.786512 134.840095 
L 353.116512 134.840095 
" style="fill: none; stroke: #000000; stroke-width: 1.5; stroke-linecap: square"/>
    </g>
    <g id="text_16">
     <text style="font-size: 8.33px; font-family: 'DejaVu Sans', 'Bitstream Vera Sans', 'Computer Modern Sans Serif', 'Lucida Grande', 'Verdana', 'Geneva', 'Lucid', 'Arial', 'Helvetica', 'Avant Garde', sans-serif; text-anchor: start" x="359.780512" y="137.755595" transform="rotate(-0 359.780512 137.755595)">Raw data</text>
    </g>
    <g id="line2d_24">
     <path d="M 336.456512 147.066973 
L 344.786512 147.066973 
L 353.116512 147.066973 
" style="fill: none; stroke: #008000; stroke-width: 1.5; stroke-linecap: square"/>
    </g>
    <g id="text_17">
     <text style="font-size: 8.33px; font-family: 'DejaVu Sans', 'Bitstream Vera Sans', 'Computer Modern Sans Serif', 'Lucida Grande', 'Verdana', 'Geneva', 'Lucid', 'Arial', 'Helvetica', 'Avant Garde', sans-serif; text-anchor: start" x="359.780512" y="149.982473" transform="rotate(-0 359.780512 149.982473)">Fit</text>
    </g>
    <g id="line2d_25">
     <path d="M 336.456512 159.293852 
L 344.786512 159.293852 
L 353.116512 159.293852 
" style="fill: none; stroke: #808080; stroke-width: 1.5; stroke-linecap: square"/>
    </g>
    <g id="text_18">
     <text style="font-size: 8.33px; font-family: 'DejaVu Sans', 'Bitstream Vera Sans', 'Computer Modern Sans Serif', 'Lucida Grande', 'Verdana', 'Geneva', 'Lucid', 'Arial', 'Helvetica', 'Avant Garde', sans-serif; text-anchor: start" x="359.780512" y="162.209352" transform="rotate(-0 359.780512 162.209352)">Abs(Raw-Fit)</text>
    </g>
    <g id="line2d_26">
     <path d="M 336.456512 171.52073 
L 344.786512 171.52073 
L 353.116512 171.52073 
" style="fill: none; stroke: #000000; stroke-width: 1.5; stroke-linecap: square"/>
    </g>
    <g id="text_19">
     <text style="font-size: 8.33px; font-family: 'DejaVu Sans', 'Bitstream Vera Sans', 'Computer Modern Sans Serif', 'Lucida Grande', 'Verdana', 'Geneva', 'Lucid', 'Arial', 'Helvetica', 'Avant Garde', sans-serif; text-anchor: start" x="359.780512" y="174.43623" transform="rotate(-0 359.780512 174.43623)">Raw data</text>
    </g>
    <g id="line2d_27">
     <path d="M 336.456512 183.747608 
L 344.786512 183.747608 
L 353.116512 183.747608 
" style="fill: none; stroke: #008000; stroke-width: 1.5; stroke-linecap: square"/>
    </g>
    <g id="text_20">
     <text style="font-size: 8.33px; font-family: 'DejaVu Sans', 'Bitstream Vera Sans', 'Computer Modern Sans Serif', 'Lucida Grande', 'Verdana', 'Geneva', 'Lucid', 'Arial', 'Helvetica', 'Avant Garde', sans-serif; text-anchor: start" x="359.780512" y="186.663108" transform="rotate(-0 359.780512 186.663108)">Fit</text>
    </g>
    <g id="line2d_28">
     <path d="M 336.456512 195.974486 
L 344.786512 195.974486 
L 353.116512 195.974486 
" style="fill: none; stroke: #808080; stroke-width: 1.5; stroke-linecap: square"/>
    </g>
    <g id="text_21">
     <text style="font-size: 8.33px; font-family: 'DejaVu Sans', 'Bitstream Vera Sans', 'Computer Modern Sans Serif', 'Lucida Grande', 'Verdana', 'Geneva', 'Lucid', 'Arial', 'Helvetica', 'Avant Garde', sans-serif; text-anchor: start" x="359.780512" y="198.889986" transform="rotate(-0 359.780512 198.889986)">Abs(Raw-Fit)</text>
    </g>
    <g id="line2d_29">
     <path d="M 336.456512 208.201364 
L 344.786512 208.201364 
L 353.116512 208.201364 
" style="fill: none; stroke: #000000; stroke-width: 1.5; stroke-linecap: square"/>
    </g>
    <g id="text_22">
     <text style="font-size: 8.33px; font-family: 'DejaVu Sans', 'Bitstream Vera Sans', 'Computer Modern Sans Serif', 'Lucida Grande', 'Verdana', 'Geneva', 'Lucid', 'Arial', 'Helvetica', 'Avant Garde', sans-serif; text-anchor: start" x="359.780512" y="211.116864" transform="rotate(-0 359.780512 211.116864)">Raw data</text>
    </g>
    <g id="line2d_30">
     <path d="M 336.456512 220.428242 
L 344.786512 220.428242 
L 353.116512 220.428242 
" style="fill: none; stroke: #008000; stroke-width: 1.5; stroke-linecap: square"/>
    </g>
    <g id="text_23">
     <text style="font-size: 8.33px; font-family: 'DejaVu Sans', 'Bitstream Vera Sans', 'Computer Modern Sans Serif', 'Lucida Grande', 'Verdana', 'Geneva', 'Lucid', 'Arial', 'Helvetica', 'Avant Garde', sans-serif; text-anchor: start" x="359.780512" y="223.343742" transform="rotate(-0 359.780512 223.343742)">Fit</text>
    </g>
    <g id="line2d_31">
     <path d="M 336.456512 232.65512 
L 344.786512 232.65512 
L 353.116512 232.65512 
" style="fill: none; stroke: #808080; stroke-width: 1.5; stroke-linecap: square"/>
    </g>
    <g id="text_24">
     <text style="font-size: 8.33px; font-family: 'DejaVu Sans', 'Bitstream Vera Sans', 'Computer Modern Sans Serif', 'Lucida Grande', 'Verdana', 'Geneva', 'Lucid', 'Arial', 'Helvetica', 'Avant Garde', sans-serif; text-anchor: start" x="359.780512" y="235.57062" transform="rotate(-0 359.780512 235.57062)">Abs(Raw-Fit)</text>
    </g>
   </g>
  </g>
 </g>
 <defs>
  <clipPath id="p9579aa0e4c">
   <rect x="69.898896" y="28.8" width="349.49448" height="216"/>
  </clipPath>
 </defs>
</svg>
