<?xml version="1.0" encoding="utf-8" standalone="no"?>
<!DOCTYPE svg PUBLIC "-//W3C//DTD SVG 1.1//EN"
  "http://www.w3.org/Graphics/SVG/1.1/DTD/svg11.dtd">
<svg xmlns:xlink="http://www.w3.org/1999/xlink" width="465.99264pt" height="288pt" viewBox="0 0 465.99264 288" xmlns="http://www.w3.org/2000/svg" version="1.1">
 <metadata>
  <rdf:RDF xmlns:dc="http://purl.org/dc/elements/1.1/" xmlns:cc="http://creativecommons.org/ns#" xmlns:rdf="http://www.w3.org/1999/02/22-rdf-syntax-ns#">
   <cc:Work>
    <dc:type rdf:resource="http://purl.org/dc/dcmitype/StillImage"/>
    <dc:date>2026-06-26T12:52:28.689946</dc:date>
    <dc:format>image/svg+xml</dc:format>
    <dc:creator>
     <cc:Agent>
      <dc:title>Matplotlib v3.10.9, https://matplotlib.org/</dc:title>
     </cc:Agent>
    </dc:creator>
   </cc:Work>
  </rdf:RDF>
 </metadata>
 <defs>
  <style type="text/css">*{stroke-linejoin: round; stroke-linecap: butt}</style>
 </defs>
 <g id="figure_1">
  <g id="patch_1">
   <path d="M 0 288 
L 465.99264 288 
L 465.99264 0 
L 0 0 
z
" style="fill: #ffffff"/>
  </g>
  <g id="axes_1">
   <g id="patch_2">
    <path d="M 69.898896 244.8 
L 419.393376 244.8 
L 419.393376 28.8 
L 69.898896 28.8 
z
" style="fill: #ffffff"/>
   </g>
   <g id="matplotlib.axis_1">
    <g id="xtick_1">
     <g id="line2d_1">
      <defs>
       <path id="mdf6c783557" d="M 0 0 
L 0 3.5 
" style="stroke: #000000; stroke-width: 0.8"/>
      </defs>
      <g>
       <use xlink:href="#mdf6c783557" x="85.785009" y="244.8" style="stroke: #000000; stroke-width: 0.8"/>
      </g>
     </g>
     <g id="text_1">
      <text style="font-size: 6px; font-family: 'DejaVu Sans', 'Bitstream Vera Sans', 'Computer Modern Sans Serif', 'Lucida Grande', 'Verdana', 'Geneva', 'Lucid', 'Arial', 'Helvetica', 'Avant Garde', sans-serif; text-anchor: middle" x="85.785009" y="256.359062" transform="rotate(-0 85.785009 256.359062)">709.5</text>
     </g>
    </g>
    <g id="xtick_2">
     <g id="line2d_2">
      <g>
       <use xlink:href="#mdf6c783557" x="134.665356" y="244.8" style="stroke: #000000; stroke-width: 0.8"/>
      </g>
     </g>
     <g id="text_2">
      <text style="font-size: 6px; font-family: 'DejaVu Sans', 'Bitstream Vera Sans', 'Computer Modern Sans Serif', 'Lucida Grande', 'Verdana', 'Geneva', 'Lucid', 'Arial', 'Helvetica', 'Avant Garde', sans-serif; text-anchor: middle" x="134.665356" y="256.359062" transform="rotate(-0 134.665356 256.359062)">710.0</text>
     </g>
    </g>
    <g id="xtick_3">
     <g id="line2d_3">
      <g>
       <use xlink:href="#mdf6c783557" x="183.545702" y="244.8" style="stroke: #000000; stroke-width: 0.8"/>
      </g>
     </g>
     <g id="text_3">
      <text style="font-size: 6px; font-family: 'DejaVu Sans', 'Bitstream Vera Sans', 'Computer Modern Sans Serif', 'Lucida Grande', 'Verdana', 'Geneva', 'Lucid', 'Arial', 'Helvetica', 'Avant Garde', sans-serif; text-anchor: middle" x="183.545702" y="256.359062" transform="rotate(-0 183.545702 256.359062)">710.5</text>
     </g>
    </g>
    <g id="xtick_4">
     <g id="line2d_4">
      <g>
       <use xlink:href="#mdf6c783557" x="232.426049" y="244.8" style="stroke: #000000; stroke-width: 0.8"/>
      </g>
     </g>
     <g id="text_4">
      <text style="font-size: 6px; font-family: 'DejaVu Sans', 'Bitstream Vera Sans', 'Computer Modern Sans Serif', 'Lucida Grande', 'Verdana', 'Geneva', 'Lucid', 'Arial', 'Helvetica', 'Avant Garde', sans-serif; text-anchor: middle" x="232.426049" y="256.359062" transform="rotate(-0 232.426049 256.359062)">711.0</text>
     </g>
    </g>
    <g id="xtick_5">
     <g id="line2d_5">
      <g>
       <use xlink:href="#mdf6c783557" x="281.306396" y="244.8" style="stroke: #000000; stroke-width: 0.8"/>
      </g>
     </g>
     <g id="text_5">
      <text style="font-size: 6px; font-family: 'DejaVu Sans', 'Bitstream Vera Sans', 'Computer Modern Sans Serif', 'Lucida Grande', 'Verdana', 'Geneva', 'Lucid', 'Arial', 'Helvetica', 'Avant Garde', sans-serif; text-anchor: middle" x="281.306396" y="256.359062" transform="rotate(-0 281.306396 256.359062)">711.5</text>
     </g>
    </g>
    <g id="xtick_6">
     <g id="line2d_6">
      <g>
       <use xlink:href="#mdf6c783557" x="330.186743" y="244.8" style="stroke: #000000; stroke-width: 0.8"/>
      </g>
     </g>
     <g id="text_6">
      <text style="font-size: 6px; font-family: 'DejaVu Sans', 'Bitstream Vera Sans', 'Computer Modern Sans Serif', 'Lucida Grande', 'Verdana', 'Geneva', 'Lucid', 'Arial', 'Helvetica', 'Avant Garde', sans-serif; text-anchor: middle" x="330.186743" y="256.359062" transform="rotate(-0 330.186743 256.359062)">712.0</text>
     </g>
    </g>
    <g id="xtick_7">
     <g id="line2d_7">
      <g>
       <use xlink:href="#mdf6c783557" x="379.06709" y="244.8" style="stroke: #000000; stroke-width: 0.8"/>
      </g>
     </g>
     <g id="text_7">
      <text style="font-size: 6px; font-family: 'DejaVu Sans', 'Bitstream Vera Sans', 'Computer Modern Sans Serif', 'Lucida Grande', 'Verdana', 'Geneva', 'Lucid', 'Arial', 'Helvetica', 'Avant Garde', sans-serif; text-anchor: middle" x="379.06709" y="256.359062" transform="rotate(-0 379.06709 256.359062)">712.5</text>
     </g>
    </g>
    <g id="text_8">
     <text style="font-size: 6px; font-family: 'DejaVu Sans', 'Bitstream Vera Sans', 'Computer Modern Sans Serif', 'Lucida Grande', 'Verdana', 'Geneva', 'Lucid', 'Arial', 'Helvetica', 'Avant Garde', sans-serif; text-anchor: middle" x="244.646136" y="266.165937" transform="rotate(-0 244.646136 266.165937)">Photon Energy [eV]</text>
    </g>
   </g>
   <g id="matplotlib.axis_2">
    <g id="ytick_1">
     <g id="line2d_8">
      <defs>
       <path id="ma1b40ba0fb" d="M 0 0 
L -3.5 0 
" style="stroke: #000000; stroke-width: 0.8"/>
      </defs>
      <g>
       <use xlink:href="#ma1b40ba0fb" x="69.898896" y="215.224282" style="stroke: #000000; stroke-width: 0.8"/>
      </g>
     </g>
     <g id="text_9">
      <text style="font-size: 6px; font-family: 'DejaVu Sans', 'Bitstream Vera Sans', 'Computer Modern Sans Serif', 'Lucida Grande', 'Verdana', 'Geneva', 'Lucid', 'Arial', 'Helvetica', 'Avant Garde', sans-serif; text-anchor: end" x="62.898896" y="217.503813" transform="rotate(-0 62.898896 217.503813)">−0.25</text>
     </g>
    </g>
    <g id="ytick_2">
     <g id="line2d_9">
      <g>
       <use xlink:href="#ma1b40ba0fb" x="69.898896" y="185.344055" style="stroke: #000000; stroke-width: 0.8"/>
      </g>
     </g>
     <g id="text_10">
      <text style="font-size: 6px; font-family: 'DejaVu Sans', 'Bitstream Vera Sans', 'Computer Modern Sans Serif', 'Lucida Grande', 'Verdana', 'Geneva', 'Lucid', 'Arial', 'Helvetica', 'Avant Garde', sans-serif; text-anchor: end" x="62.898896" y="187.623586" transform="rotate(-0 62.898896 187.623586)">0.00</text>
     </g>
    </g>
    <g id="ytick_3">
     <g id="line2d_10">
      <g>
       <use xlink:href="#ma1b40ba0fb" x="69.898896" y="155.463828" style="stroke: #000000; stroke-width: 0.8"/>
      </g>
     </g>
     <g id="text_11">
      <text style="font-size: 6px; font-family: 'DejaVu Sans', 'Bitstream Vera Sans', 'Computer Modern Sans Serif', 'Lucida Grande', 'Verdana', 'Geneva', 'Lucid', 'Arial', 'Helvetica', 'Avant Garde', sans-serif; text-anchor: end" x="62.898896" y="157.74336" transform="rotate(-0 62.898896 157.74336)">0.25</text>
     </g>
    </g>
    <g id="ytick_4">
     <g id="line2d_11">
      <g>
       <use xlink:href="#ma1b40ba0fb" x="69.898896" y="125.583601" style="stroke: #000000; stroke-width: 0.8"/>
      </g>
     </g>
     <g id="text_12">
      <text style="font-size: 6px; font-family: 'DejaVu Sans', 'Bitstream Vera Sans', 'Computer Modern Sans Serif', 'Lucida Grande', 'Verdana', 'Geneva', 'Lucid', 'Arial', 'Helvetica', 'Avant Garde', sans-serif; text-anchor: end" x="62.898896" y="127.863133" transform="rotate(-0 62.898896 127.863133)">0.50</text>
     </g>
    </g>
    <g id="ytick_5">
     <g id="line2d_12">
      <g>
       <use xlink:href="#ma1b40ba0fb" x="69.898896" y="95.703374" style="stroke: #000000; stroke-width: 0.8"/>
      </g>
     </g>
     <g id="text_13">
      <text style="font-size: 6px; font-family: 'DejaVu Sans', 'Bitstream Vera Sans', 'Computer Modern Sans Serif', 'Lucida Grande', 'Verdana', 'Geneva', 'Lucid', 'Arial', 'Helvetica', 'Avant Garde', sans-serif; text-anchor: end" x="62.898896" y="97.982906" transform="rotate(-0 62.898896 97.982906)">0.75</text>
     </g>
    </g>
    <g id="ytick_6">
     <g id="line2d_13">
      <g>
       <use xlink:href="#ma1b40ba0fb" x="69.898896" y="65.823147" style="stroke: #000000; stroke-width: 0.8"/>
      </g>
     </g>
     <g id="text_14">
      <text style="font-size: 6px; font-family: 'DejaVu Sans', 'Bitstream Vera Sans', 'Computer Modern Sans Serif', 'Lucida Grande', 'Verdana', 'Geneva', 'Lucid', 'Arial', 'Helvetica', 'Avant Garde', sans-serif; text-anchor: end" x="62.898896" y="68.102679" transform="rotate(-0 62.898896 68.102679)">1.00</text>
     </g>
    </g>
    <g id="ytick_7">
     <g id="line2d_14">
      <g>
       <use xlink:href="#ma1b40ba0fb" x="69.898896" y="35.942921" style="stroke: #000000; stroke-width: 0.8"/>
      </g>
     </g>
     <g id="text_15">
      <text style="font-size: 6px; font-family: 'DejaVu Sans', 'Bitstream Vera Sans', 'Computer Modern Sans Serif', 'Lucida Grande', 'Verdana', 'Geneva', 'Lucid', 'Arial', 'Helvetica', 'Avant Garde', sans-serif; text-anchor: end" x="62.898896" y="38.222452" transform="rotate(-0 62.898896 38.222452)">1.25</text>
     </g>
    </g>
    <g id="text_16">
     <text style="font-size: 6px; font-family: 'DejaVu Sans', 'Bitstream Vera Sans', 'Computer Modern Sans Serif', 'Lucida Grande', 'Verdana', 'Geneva', 'Lucid', 'Arial', 'Helvetica', 'Avant Garde', sans-serif; text-anchor: middle" x="39.263896" y="136.8" transform="rotate(-90 39.263896 136.8)">Optical Density</text>
    </g>
   </g>
   <g id="line2d_15">
    <path d="M 85.785009 206.40382 
L 110.225182 204.63836 
L 134.665356 205.485995 
L 159.105529 211.093355 
L 183.545702 221.835883 
L 207.985876 230.569199 
L 232.426049 233.271369 
L 256.866223 231.143597 
L 281.306396 222.777305 
L 305.74657 215.011507 
L 330.186743 211.52023 
L 354.626916 210.978599 
L 379.06709 209.843901 
L 403.507263 208.972932 
" clip-path="url(#p6c14a946e1)" style="fill: none; stroke: #000000; stroke-width: 1.5; stroke-linecap: square"/>
   </g>
   <g id="line2d_16">
    <path d="M 85.785009 207.708973 
L 110.225182 206.655677 
L 134.665356 207.468041 
L 159.105529 211.582541 
L 183.545702 220.370799 
L 207.985876 233.46859 
L 232.426049 234.981818 
L 256.866223 230.174294 
L 281.306396 219.684488 
L 305.74657 213.110962 
L 330.186743 210.409862 
L 354.626916 209.664084 
L 379.06709 208.962329 
L 403.507263 208.142699 
" clip-path="url(#p6c14a946e1)" style="fill: none; stroke: #008000; stroke-width: 1.5; stroke-linecap: square"/>
   </g>
   <g id="line2d_17">
    <path d="M 85.785009 184.038902 
L 110.225182 183.326739 
L 134.665356 183.36201 
L 159.105529 184.85487 
L 183.545702 183.878971 
L 207.985876 182.444665 
L 232.426049 183.633606 
L 256.866223 184.374752 
L 281.306396 182.251238 
L 305.74657 183.44351 
L 330.186743 184.233687 
L 354.626916 184.02954 
L 379.06709 184.462484 
L 403.507263 184.513821 
" clip-path="url(#p6c14a946e1)" style="fill: none; stroke: #808080; stroke-width: 1.5; stroke-linecap: square"/>
   </g>
   <g id="line2d_18">
    <path d="M 85.785009 166.742529 
L 110.225182 166.811587 
L 134.665356 166.528145 
L 159.105529 163.382769 
L 183.545702 158.375834 
L 207.985876 150.119628 
L 232.426049 149.547203 
L 256.866223 152.622989 
L 281.306396 158.77868 
L 305.74657 162.874415 
L 330.186743 164.386014 
L 354.626916 164.957153 
L 379.06709 165.207397 
L 403.507263 166.118732 
" clip-path="url(#p6c14a946e1)" style="fill: none; stroke: #000000; stroke-width: 1.5; stroke-linecap: square"/>
   </g>
   <g id="line2d_19">
    <path d="M 85.785009 165.871439 
L 110.225182 166.503093 
L 134.665356 166.084168 
L 159.105529 163.545443 
L 183.545702 158.168246 
L 207.985876 149.845798 
L 232.426049 149.399302 
L 256.866223 152.479491 
L 281.306396 159.136433 
L 305.74657 163.207595 
L 330.186743 164.88631 
L 354.626916 165.398384 
L 379.06709 165.861911 
L 403.507263 166.362949 
" clip-path="url(#p6c14a946e1)" style="fill: none; stroke: #008000; stroke-width: 1.5; stroke-linecap: square"/>
   </g>
   <g id="line2d_20">
    <path d="M 85.785009 184.472966 
L 110.225182 185.035562 
L 134.665356 184.900079 
L 159.105529 185.181381 
L 183.545702 185.136467 
L 207.985876 185.070225 
L 232.426049 185.196155 
L 256.866223 185.200557 
L 281.306396 184.986302 
L 305.74657 185.010875 
L 330.186743 184.84376 
L 354.626916 184.902824 
L 379.06709 184.689541 
L 403.507263 185.099837 
" clip-path="url(#p6c14a946e1)" style="fill: none; stroke: #808080; stroke-width: 1.5; stroke-linecap: square"/>
   </g>
   <g id="line2d_21">
    <path d="M 85.785009 114.490287 
L 110.225182 116.984331 
L 134.665356 114.809875 
L 159.105529 104.980936 
L 183.545702 82.327551 
L 207.985876 45.617951 
L 232.426049 38.618182 
L 256.866223 55.789955 
L 281.306396 86.038467 
L 305.74657 103.071501 
L 330.186743 109.999383 
L 354.626916 112.088614 
L 379.06709 113.843042 
L 403.507263 115.899119 
" clip-path="url(#p6c14a946e1)" style="fill: none; stroke: #000000; stroke-width: 1.5; stroke-linecap: square"/>
   </g>
   <g id="line2d_22">
    <path d="M 85.785009 115.378426 
L 110.225182 118.123081 
L 134.665356 116.130952 
L 159.105529 105.045871 
L 183.545702 81.432045 
L 207.985876 47.277856 
L 232.426049 39.590327 
L 256.866223 55.429189 
L 281.306396 84.113056 
L 305.74657 101.958759 
L 330.186743 109.25608 
L 354.626916 111.327018 
L 379.06709 113.305193 
L 403.507263 115.513702 
" clip-path="url(#p6c14a946e1)" style="fill: none; stroke: #008000; stroke-width: 1.5; stroke-linecap: square"/>
   </g>
   <g id="line2d_23">
    <path d="M 85.785009 184.455916 
L 110.225182 184.205305 
L 134.665356 184.022979 
L 159.105529 185.279121 
L 183.545702 184.44855 
L 207.985876 183.68415 
L 232.426049 184.37191 
L 256.866223 184.983289 
L 281.306396 183.418645 
L 305.74657 184.231313 
L 330.186743 184.600752 
L 354.626916 184.582459 
L 379.06709 184.806206 
L 403.507263 184.958639 
" clip-path="url(#p6c14a946e1)" style="fill: none; stroke: #808080; stroke-width: 1.5; stroke-linecap: square"/>
   </g>
   <g id="patch_3">
    <path d="M 69.898896 244.8 
L 69.898896 28.8 
" style="fill: none; stroke: #000000; stroke-width: 0.8; stroke-linejoin: miter; stroke-linecap: square"/>
   </g>
   <g id="patch_4">
    <path d="M 419.393376 244.8 
L 419.393376 28.8 
" style="fill: none; stroke: #000000; stroke-width: 0.8; stroke-linejoin: miter; stroke-linecap: square"/>
   </g>
   <g id="patch_5">
    <path d="M 69.898896 244.8 
L 419.393376 244.8 
" style="fill: none; stroke: #000000; stroke-width: 0.8; stroke-linejoin: miter; stroke-linecap: square"/>
   </g>
   <g id="patch_6">
    <path d="M 69.898896 28.8 
L 419.393376 28.8 
" style="fill: none; stroke: #000000; stroke-width: 0.8; stroke-linejoin: miter; stroke-linecap: square"/>
   </g>
   <g id="legend_1">
    <g id="patch_7">
     <path d="M 368.631658 242.301 
L 415.894776 242.301 
Q 416.894376 242.301 416.894376 241.3014 
L 416.894376 175.776058 
Q 416.894376 174.776458 415.894776 174.776458 
L 368.631658 174.776458 
Q 367.632058 174.776458 367.632058 175.776058 
L 367.632058 241.3014 
Q 367.632058 242.301 368.631658 242.301 
z
" style="fill: #ffffff; opacity: 0.8; stroke: #cccccc; stroke-linejoin: miter"/>
    </g>
    <g id="line2d_24">
     <path d="M 369.631258 178.824057 
L 374.629258 178.824057 
L 379.627258 178.824057 
" style="fill: none; stroke: #000000; stroke-width: 1.5; stroke-linecap: square"/>
    </g>
    <g id="text_17">
     <text style="font-size: 4.998px; font-family: 'DejaVu Sans', 'Bitstream Vera Sans', 'Computer Modern Sans Serif', 'Lucida Grande', 'Verdana', 'Geneva', 'Lucid', 'Arial', 'Helvetica', 'Avant Garde', sans-serif; text-anchor: start" x="383.625658" y="180.573357" transform="rotate(-0 383.625658 180.573357)">Raw data</text>
    </g>
    <g id="line2d_25">
     <path d="M 369.631258 186.160184 
L 374.629258 186.160184 
L 379.627258 186.160184 
" style="fill: none; stroke: #008000; stroke-width: 1.5; stroke-linecap: square"/>
    </g>
    <g id="text_18">
     <text style="font-size: 4.998px; font-family: 'DejaVu Sans', 'Bitstream Vera Sans', 'Computer Modern Sans Serif', 'Lucida Grande', 'Verdana', 'Geneva', 'Lucid', 'Arial', 'Helvetica', 'Avant Garde', sans-serif; text-anchor: start" x="383.625658" y="187.909484" transform="rotate(-0 383.625658 187.909484)">Fit</text>
    </g>
    <g id="line2d_26">
     <path d="M 369.631258 193.496311 
L 374.629258 193.496311 
L 379.627258 193.496311 
" style="fill: none; stroke: #808080; stroke-width: 1.5; stroke-linecap: square"/>
    </g>
    <g id="text_19">
     <text style="font-size: 4.998px; font-family: 'DejaVu Sans', 'Bitstream Vera Sans', 'Computer Modern Sans Serif', 'Lucida Grande', 'Verdana', 'Geneva', 'Lucid', 'Arial', 'Helvetica', 'Avant Garde', sans-serif; text-anchor: start" x="383.625658" y="195.245611" transform="rotate(-0 383.625658 195.245611)">Abs(Raw-Fit)</text>
    </g>
    <g id="line2d_27">
     <path d="M 369.631258 200.832438 
L 374.629258 200.832438 
L 379.627258 200.832438 
" style="fill: none; stroke: #000000; stroke-width: 1.5; stroke-linecap: square"/>
    </g>
    <g id="text_20">
     <text style="font-size: 4.998px; font-family: 'DejaVu Sans', 'Bitstream Vera Sans', 'Computer Modern Sans Serif', 'Lucida Grande', 'Verdana', 'Geneva', 'Lucid', 'Arial', 'Helvetica', 'Avant Garde', sans-serif; text-anchor: start" x="383.625658" y="202.581738" transform="rotate(-0 383.625658 202.581738)">Raw data</text>
    </g>
    <g id="line2d_28">
     <path d="M 369.631258 208.168565 
L 374.629258 208.168565 
L 379.627258 208.168565 
" style="fill: none; stroke: #008000; stroke-width: 1.5; stroke-linecap: square"/>
    </g>
    <g id="text_21">
     <text style="font-size: 4.998px; font-family: 'DejaVu Sans', 'Bitstream Vera Sans', 'Computer Modern Sans Serif', 'Lucida Grande', 'Verdana', 'Geneva', 'Lucid', 'Arial', 'Helvetica', 'Avant Garde', sans-serif; text-anchor: start" x="383.625658" y="209.917865" transform="rotate(-0 383.625658 209.917865)">Fit</text>
    </g>
    <g id="line2d_29">
     <path d="M 369.631258 215.504692 
L 374.629258 215.504692 
L 379.627258 215.504692 
" style="fill: none; stroke: #808080; stroke-width: 1.5; stroke-linecap: square"/>
    </g>
    <g id="text_22">
     <text style="font-size: 4.998px; font-family: 'DejaVu Sans', 'Bitstream Vera Sans', 'Computer Modern Sans Serif', 'Lucida Grande', 'Verdana', 'Geneva', 'Lucid', 'Arial', 'Helvetica', 'Avant Garde', sans-serif; text-anchor: start" x="383.625658" y="217.253992" transform="rotate(-0 383.625658 217.253992)">Abs(Raw-Fit)</text>
    </g>
    <g id="line2d_30">
     <path d="M 369.631258 222.840818 
L 374.629258 222.840818 
L 379.627258 222.840818 
" style="fill: none; stroke: #000000; stroke-width: 1.5; stroke-linecap: square"/>
    </g>
    <g id="text_23">
     <text style="font-size: 4.998px; font-family: 'DejaVu Sans', 'Bitstream Vera Sans', 'Computer Modern Sans Serif', 'Lucida Grande', 'Verdana', 'Geneva', 'Lucid', 'Arial', 'Helvetica', 'Avant Garde', sans-serif; text-anchor: start" x="383.625658" y="224.590118" transform="rotate(-0 383.625658 224.590118)">Raw data</text>
    </g>
    <g id="line2d_31">
     <path d="M 369.631258 230.176945 
L 374.629258 230.176945 
L 379.627258 230.176945 
" style="fill: none; stroke: #008000; stroke-width: 1.5; stroke-linecap: square"/>
    </g>
    <g id="text_24">
     <text style="font-size: 4.998px; font-family: 'DejaVu Sans', 'Bitstream Vera Sans', 'Computer Modern Sans Serif', 'Lucida Grande', 'Verdana', 'Geneva', 'Lucid', 'Arial', 'Helvetica', 'Avant Garde', sans-serif; text-anchor: start" x="383.625658" y="231.926245" transform="rotate(-0 383.625658 231.926245)">Fit</text>
    </g>
    <g id="line2d_32">
     <path d="M 369.631258 237.513072 
L 374.629258 237.513072 
L 379.627258 237.513072 
" style="fill: none; stroke: #808080; stroke-width: 1.5; stroke-linecap: square"/>
    </g>
    <g id="text_25">
     <text style="font-size: 4.998px; font-family: 'DejaVu Sans', 'Bitstream Vera Sans', 'Computer Modern Sans Serif', 'Lucida Grande', 'Verdana', 'Geneva', 'Lucid', 'Arial', 'Helvetica', 'Avant Garde', sans-serif; text-anchor: start" x="383.625658" y="239.262372" transform="rotate(-0 383.625658 239.262372)">Abs(Raw-Fit)</text>
    </g>
   </g>
  </g>
 </g>
 <defs>
  <clipPath id="p6c14a946e1">
   <rect x="69.898896" y="28.8" width="349.49448" height="216"/>
  </clipPath>
 </defs>
</svg>
